<svg width="38" height="36" viewBox="0 0 38 36" fill="none" xmlns="http://www.w3.org/2000/svg">
<path d="M36.0358 16.9323C33.2376 12.079 27.7044 9.78241 22.5007 10.8454L21.1696 8.53682C20.9847 8.21677 20.5754 8.10702 20.2571 8.29188L17.9262 9.63954C16.791 7.87285 15.0729 6.60291 13.0326 6.0554C10.8584 5.47183 8.5876 5.77094 6.63708 6.89834C6.3175 7.08315 6.20823 7.49208 6.3925 7.81212C6.57677 8.1315 6.98472 8.24125 7.30497 8.05705C8.94565 7.10829 10.8568 6.85687 12.6869 7.34741C14.3826 7.80249 15.8139 8.85064 16.7692 10.3085L14.4731 11.6361C14.3198 11.7249 14.2076 11.8709 14.162 12.0424C14.116 12.2138 14.1401 12.3964 14.2285 12.5499L15.558 14.8557C14.2634 16.3141 13.3073 18.0577 12.7884 19.9973C11.9111 23.2763 12.3611 26.7008 14.056 29.6404C15.7508 32.58 18.4873 34.6829 21.7615 35.5614C22.8546 35.855 23.9642 36 25.0664 36C27.2651 36 29.4355 35.4223 31.3908 34.2919C34.3262 32.5947 36.4262 29.8543 37.3034 26.5754C38.1806 23.2968 37.7306 19.8719 36.0358 16.9323ZM20.3465 9.78502L21.0144 10.9431L16.3874 13.6184L15.7195 12.4604L20.3465 9.78502ZM36.0133 26.2292C35.2283 29.163 33.3495 31.615 30.723 33.1332C28.0957 34.6519 25.0361 35.0542 22.1072 34.2694C19.1777 33.4833 16.7292 31.6018 15.213 28.9715C13.6966 26.3416 13.2935 23.2773 14.0785 20.3435C14.8634 17.4101 16.7422 14.9581 19.3688 13.4395C21.1523 12.4082 23.1016 11.9182 25.0266 11.9182C28.9534 11.9182 32.7781 13.9578 34.8787 17.6012C36.3952 20.2315 36.7982 23.2955 36.0133 26.2292Z" fill="white"/>
<path d="M20.2037 14.8872C15.579 17.5613 13.9888 23.5041 16.6588 28.1354C16.7827 28.35 17.0071 28.4699 17.238 28.4699C17.3512 28.4699 17.4663 28.4412 17.5713 28.3804C17.8909 28.1956 18.0001 27.7866 17.8159 27.4666C15.5141 23.4741 16.8848 18.3509 20.8716 16.0459C21.1912 15.8611 21.3005 15.4522 21.1162 15.1321C20.9313 14.8121 20.522 14.702 20.2037 14.8872Z" fill="white"/>
<path d="M1.1506 0.000728582L0.409668 1.11365L5.52811 4.53102L6.26905 3.4181L1.1506 0.000728582Z" fill="white"/>
<path d="M4.42605 8.71045L1.09204 14.5535L2.2517 15.2171L5.58571 9.37404L4.42605 8.71045Z" fill="white"/>
<path d="M4.67525 5.27551H0V6.6132H4.67525V5.27551Z" fill="white"/>
</svg>
