<svg width="24" height="23" viewBox="0 0 24 23" fill="none" xmlns="http://www.w3.org/2000/svg">
<path d="M22.9154 10.7676C21.136 7.68139 17.6174 6.22096 14.3083 6.89693L13.4619 5.42888C13.3443 5.22536 13.084 5.15556 12.8816 5.27312L11.3993 6.13011C10.6775 5.00666 9.58491 4.1991 8.28748 3.85093C6.90486 3.47983 5.46086 3.67004 4.22052 4.38696C4.01729 4.50448 3.9478 4.76452 4.06498 4.96804C4.18216 5.17113 4.44158 5.24093 4.64523 5.12379C5.68855 4.52047 6.90384 4.36059 8.06765 4.67252C9.14592 4.96191 10.0561 5.62844 10.6636 6.55552L9.20347 7.39974C9.106 7.45623 9.03469 7.54903 9.00564 7.65809C8.97642 7.7671 8.99175 7.88321 9.04794 7.98082L9.89338 9.44713C9.07015 10.3745 8.46217 11.4833 8.13216 12.7167C7.5743 14.8018 7.86047 16.9795 8.93824 18.8488C10.016 20.7181 11.7562 22.0553 13.8382 22.614C14.5334 22.8007 15.2389 22.8929 15.9399 22.8929C17.338 22.8929 18.7182 22.5255 19.9616 21.8067C21.8282 20.7274 23.1636 18.9848 23.7214 16.8997C24.2793 14.8148 23.9931 12.6369 22.9154 10.7676ZM12.9384 6.22262L13.3632 6.95902L10.4208 8.66032L9.99608 7.92391L12.9384 6.22262ZM22.901 16.6796C22.4019 18.5452 21.2071 20.1044 19.5369 21.0699C17.8662 22.0356 15.9206 22.2915 14.0581 21.7924C12.1952 21.2925 10.6382 20.0961 9.67402 18.4235C8.70969 16.751 8.45338 14.8024 8.95255 12.9368C9.45172 11.0715 10.6464 9.51224 12.3167 8.54655C13.4509 7.8907 14.6904 7.57915 15.9146 7.57915C18.4116 7.57915 20.8438 8.87613 22.1796 11.193C23.1439 12.8656 23.4002 14.814 22.901 16.6796Z" fill="white"/>
<path d="M12.8476 9.46711C9.90673 11.1676 8.89552 14.9467 10.5934 17.8918C10.6722 18.0282 10.8149 18.1044 10.9617 18.1044C11.0336 18.1044 11.1069 18.0862 11.1736 18.0475C11.3768 17.93 11.4463 17.67 11.3292 17.4664C9.86545 14.9276 10.7371 11.6697 13.2723 10.2039C13.4755 10.0864 13.545 9.82638 13.4279 9.62286C13.3103 9.41935 13.05 9.34934 12.8476 9.46711Z" fill="white"/>
<path d="M0.731662 0.000783173L0.260498 0.708496L3.51535 2.88163L3.98652 2.17392L0.731662 0.000783173Z" fill="white"/>
<path d="M2.81445 5.53927L0.694336 9.25488L1.43177 9.67686L3.55189 5.96125L2.81445 5.53927Z" fill="white"/>
<path d="M2.97302 3.35498H0V4.20563H2.97302V3.35498Z" fill="white"/>
</svg>
